# xmcd CD database file
#
# Track frame offsets:
#	150
#	16975
#	31420
#	46505
#	59295
#	69040
#	87760
#	130945
#	151440
#	163190
#	177510
#	195900
#	210702
#	240810
#	260980
#	272832
#
# Disc length: 3838 seconds
#
# Revision: 0
# Processed by: cddbd v1.4PL0 Copyright (c) Steve Scherf et al.
# Submitted via: CDex 1.50Beta7
#
DISCID=d00efc10
DTITLE=Mercy Dee Walton - Mercy's Trouble
DYEAR=1961
DGENRE=Blues
TTITLE0=Have You Ever Been Out In The Country
TTITLE1=Five Card Hand
TTITLE2=After The Fight
TTITLE3=Lady Luck
TTITLE4=Betty Jean
TTITLE5=One Room Country Shack
TTITLE6=Mercy's Troubles
TTITLE7=Sugar Daddy
TTITLE8=Red Light
TTITLE9=Walked Down So Many Turnrows
TTITLE10=Call The Asylum
TTITLE11=Mercy's Shuffle
TTITLE12=Troublesome Mind
TTITLE13=Shady Lane
TTITLE14=Eighth Wonder Of The Word
TTITLE15=I Been A Fool
EXTD=YEAR: 1961
EXTT0=
EXTT1=
EXTT2=
EXTT3=
EXTT4=
EXTT5=
EXTT6=
EXTT7=
EXTT8=
EXTT9=
EXTT10=
EXTT11=
EXTT12=
EXTT13=
EXTT14=
EXTT15=
PLAYORDER=
